<svg width="1132" height="651" viewBox="0 0 1132 651" fill="none" xmlns="http://www.w3.org/2000/svg">
<g id="Mask Group">
<mask id="mask0_1022_708" style="mask-type:alpha" maskUnits="userSpaceOnUse" x="0" y="-17" width="1132" height="668">
<path id="Rectangle 21" d="M0 -16.1689H1132V651H0V-16.1689Z" fill="url(#paint0_linear_1022_708)"/>
</mask>
<g mask="url(#mask0_1022_708)">
<path id="Vector" d="M1121.12 206.254C1052.07 154.011 963.311 132.985 875.729 148.417C707.692 178.023 594.935 330.672 622.706 488.289C629.31 525.771 643.891 560.857 663.906 591.021C635.2 648.598 580.364 688.978 514.167 700.641C404.18 720.019 299.659 651.234 281.371 547.438C263.083 443.641 337.801 343.276 447.789 323.898C491.58 316.182 534.518 321.499 573.546 340.386L621.784 250.632C562.223 222.481 496.713 214.204 430.517 225.868C261.801 257.575 148.025 410.404 175.796 568.021C203.566 725.638 362.723 830.379 529.741 800.952C615.287 785.879 689.814 738.066 736.516 669.392C802.518 716.227 887.201 737.971 975.802 722.36C1078.66 704.238 1164.91 639.496 1207.54 547.756C1231.83 494.922 1239.66 438.051 1229.67 381.347C1217.65 313.111 1179.32 250.5 1121.12 206.254ZM1110.65 510.328C1083.3 569.647 1025.91 613.449 958.699 625.291C848.712 644.67 744.191 575.885 725.903 472.089C707.615 368.292 782.333 267.927 892.321 248.548C949.352 238.5 1008.41 251.877 1053.37 286.564C1091.04 315.6 1117.16 356.58 1125.12 401.751C1131.55 438.272 1126.61 475.806 1110.65 510.328Z" fill="url(#paint1_linear_1022_708)" fill-opacity="0.045"/>
</g>
</g>
<defs>
<linearGradient id="paint0_linear_1022_708" x1="566.391" y1="380.297" x2="731.49" y2="2518.01" gradientUnits="userSpaceOnUse">
<stop stop-color="white"/>
<stop offset="1" stop-color="#A6A6A6"/>
</linearGradient>
<linearGradient id="paint1_linear_1022_708" x1="997.077" y1="664.246" x2="226.946" y2="-429.048" gradientUnits="userSpaceOnUse">
<stop/>
<stop offset="1" stop-opacity="0"/>
</linearGradient>
</defs>
</svg>
