<?xml version="1.0" encoding="utf-8"?>
<!-- Generator: Adobe Illustrator 26.0.1, SVG Export Plug-In . SVG Version: 6.00 Build 0)  -->
<svg version="1.1" id="Layer_1" xmlns="http://www.w3.org/2000/svg" xmlns:xlink="http://www.w3.org/1999/xlink" x="0px" y="0px"
	 viewBox="0 0 1366 768" style="enable-background:new 0 0 1366 768;" xml:space="preserve">
<style type="text/css">
	.st0{clip-path:url(#SVGID_00000168084917872907092160000011912665510572285061_);fill:#F7F7F7;}
</style>
<g>
	<defs>
		<rect id="SVGID_1_" width="1366" height="768"/>
	</defs>
	<clipPath id="SVGID_00000169552280170960242200000004289674108797899668_">
		<use xlink:href="#SVGID_1_"  style="overflow:visible;"/>
	</clipPath>
	<path style="clip-path:url(#SVGID_00000169552280170960242200000004289674108797899668_);fill:#F7F7F7;" d="M1218.3,300.3
		c-66.5-53.2-152.5-75.2-236.3-60.4c-160.6,28.3-267.8,182-239.6,342.2c6.8,38.5,20.8,73.5,40.4,105c-26.6,57.8-79.4,99-142.4,110.1
		c-105.1,18.5-205.9-52-224.4-157.2s52-205.9,157.2-224.4c41.4-7.3,83.3-1.3,120.8,17.7l45.2-91.1C682,313.2,618.4,304,555,315.2
		c-160.2,28.2-267.8,182-239.6,342.2s182,268.2,342.2,240c82.1-14.5,152.7-62.2,197-130.9c63.4,47.8,145.7,70.5,229.9,55.6
		c98.3-17.3,180.7-82.7,220.2-174.3c22.9-53,29.4-111,19.4-167.9C1312.1,408.8,1274.1,345.4,1218.3,300.3z M1211.6,607.3
		c-26.1,60.3-80.2,103.2-144.6,114.6c-105.1,18.5-205.9-52-224.4-157.2s52-205.9,157.2-224.4c55.1-9.7,111.5,4.8,155.1,39.8
		c36.8,29.5,61.5,71.2,69.7,117.6C1231,534.5,1226.6,572.7,1211.6,607.3z"/>
</g>
</svg>
