<svg width="199" height="73" viewBox="0 0 199 73" fill="none" xmlns="http://www.w3.org/2000/svg">
<path d="M115.06 12.2885C108.253 4.55307 98.4841 0.132812 88.185 0.132812C68.4705 0.132812 52.4692 16.1783 52.4692 35.8485C52.4692 40.5782 53.3974 45.0426 55.0771 49.1977C50.7011 55.5186 43.5402 59.3201 35.8048 59.3201C22.8976 59.3201 12.3775 48.7998 12.3775 35.8927C12.3775 22.9855 22.8976 12.4654 35.8048 12.4654C40.8881 12.4654 45.7504 14.0567 49.817 17.1066L57.1546 7.24946C50.9663 2.60816 43.5845 0.177015 35.8048 0.177015C16.0462 0.132812 0.0449219 16.1783 0.0449219 35.8485C0.0449219 55.5186 16.0462 71.6081 35.7606 71.6081C45.8388 71.6081 55.2539 67.4091 61.9727 60.1599C68.5147 67.1881 77.8412 71.6081 88.185 71.6081C100.252 71.6081 111.435 65.5526 118.066 55.4744C121.912 49.6397 123.9 42.8767 123.9 35.8927C123.9 27.1848 120.762 18.8305 115.06 12.2885ZM107.811 48.7114C103.435 55.3418 96.0968 59.3201 88.185 59.3201C75.2779 59.3201 64.7575 48.7998 64.7575 35.8927C64.7575 22.9855 75.2779 12.4654 88.185 12.4654C94.9475 12.4654 101.357 15.3827 105.822 20.466C109.579 24.7536 111.657 30.2348 111.657 35.9369C111.613 40.4456 110.286 44.91 107.811 48.7114Z" fill="white"/>
<path d="M134.154 70.8565V35.4062H139.061V70.8565H134.154Z" fill="#CECECE"/>
<path d="M163.639 47.2073H168.546V70.8114H163.595L163.418 67.4078C162.711 68.6013 161.782 69.6179 160.633 70.3255C159.44 71.0768 158.07 71.4301 156.479 71.4301C154.71 71.4301 153.075 71.1208 151.572 70.4574C150.069 69.7947 148.699 68.9107 147.549 67.7172C146.4 66.5679 145.472 65.1977 144.853 63.6948C144.19 62.1919 143.881 60.5564 143.881 58.7883C143.881 57.1086 144.19 55.5173 144.809 54.0145C145.427 52.5115 146.311 51.2296 147.417 50.1246C148.522 49.0196 149.848 48.1355 151.307 47.4724C152.765 46.8536 154.357 46.5 156.037 46.5C157.76 46.5 159.263 46.8978 160.589 47.6492C161.915 48.4449 162.976 49.4173 163.816 50.655L163.639 47.2073ZM156.567 66.7005C157.981 66.7005 159.219 66.3469 160.236 65.6397C161.252 64.9324 162.048 63.96 162.578 62.7665C163.108 61.573 163.33 60.247 163.241 58.7883C163.153 57.418 162.799 56.1361 162.136 54.9869C161.517 53.8376 160.633 52.9535 159.617 52.2906C158.556 51.6275 157.363 51.2738 156.037 51.2738C154.622 51.2738 153.384 51.6275 152.235 52.3348C151.13 53.0419 150.246 54.0144 149.627 55.2079C149.008 56.4013 148.743 57.7274 148.831 59.1861C148.919 60.5564 149.317 61.7941 150.069 62.9433C150.821 64.0926 151.749 64.9766 152.898 65.6397C154.003 66.3911 155.241 66.7005 156.567 66.7005Z" fill="#CECECE"/>
<path d="M186.492 46.5895C188.79 46.5895 190.867 47.1641 192.768 48.2692C194.669 49.3742 196.172 50.8771 197.277 52.7778C198.382 54.6785 198.957 56.7561 198.957 59.0546C198.957 60.7785 198.647 62.3698 197.984 63.8727C197.321 65.3756 196.437 66.7016 195.287 67.8509C194.138 69.0002 192.812 69.8846 191.309 70.5472C189.807 71.2105 188.216 71.5199 186.492 71.5199C184.856 71.5199 183.397 71.1219 182.16 70.3706C180.922 69.619 179.905 68.6466 179.11 67.4089V70.9012H174.203V35.4062H179.11V50.6561C179.905 49.4626 180.922 48.446 182.16 47.6945C183.397 46.9431 184.856 46.5895 186.492 46.5895ZM186.447 66.7016C187.818 66.7016 189.055 66.348 190.204 65.6408C191.353 64.9335 192.237 64.0053 192.901 62.856C193.564 61.7068 193.917 60.4249 193.917 59.0104C193.917 57.5959 193.564 56.2698 192.901 55.1206C192.237 53.9713 191.309 53.043 190.204 52.3358C189.055 51.6728 187.818 51.3191 186.492 51.3191C185.121 51.3191 183.928 51.6728 182.867 52.38C181.806 53.0872 181.01 54.0155 180.436 55.1648C179.861 56.314 179.552 57.6401 179.552 59.0546C179.552 60.4691 179.861 61.751 180.436 62.9444C181.01 64.0937 181.85 65.0219 182.867 65.7292C183.884 66.348 185.077 66.7016 186.447 66.7016Z" fill="#CECECE"/>
</svg>
