<?xml version="1.0" encoding="utf-8"?>
<!-- Generator: Adobe Illustrator 26.0.1, SVG Export Plug-In . SVG Version: 6.00 Build 0)  -->
<svg version="1.1" id="Layer_1" xmlns="http://www.w3.org/2000/svg" xmlns:xlink="http://www.w3.org/1999/xlink" x="0px" y="0px"
	 viewBox="0 0 280.3 163.3" style="enable-background:new 0 0 280.3 163.3;" xml:space="preserve">
<style type="text/css">
	.st0{fill:url(#SVGID_1_);}
</style>
<g>
	
		<linearGradient id="SVGID_1_" gradientUnits="userSpaceOnUse" x1="0.1" y1="84.85" x2="280.3" y2="84.85" gradientTransform="matrix(1 0 0 -1 0 166)">
		<stop  offset="0" style="stop-color:#000000"/>
		<stop  offset="1" style="stop-color:#000000"/>
	</linearGradient>
	<path class="st0" d="M260.3,27.8c-15.4-17.5-37.5-27.5-60.8-27.5c-44.6,0-80.8,36.3-80.8,80.8c0,10.7,2.1,20.8,5.9,30.2
		c-9.9,14.3-26.1,22.9-43.6,22.9c-29.2,0-53-23.8-53-53s23.8-53,53-53c11.5,0,22.5,3.6,31.7,10.5l16.6-22.3
		c-14-10.5-30.7-16-48.3-16C36.3,0.3,0.1,36.6,0.1,81.1S36.3,162,80.9,162c22.8,0,44.1-9.5,59.3-25.9C155,152,176.1,162,199.5,162
		c27.3,0,52.6-13.7,67.6-36.5c8.7-13.2,13.2-28.5,13.2-44.3C280.3,61.5,273.2,42.6,260.3,27.8z M243.9,110.2
		c-9.9,15-26.5,24-44.4,24c-29.2,0-53-23.8-53-53s23.8-53,53-53c15.3,0,29.8,6.6,39.9,18.1c8.5,9.7,13.2,22.1,13.2,35
		C252.5,91.5,249.5,101.6,243.9,110.2z"/>
</g>
</svg>
